<svg width="116" height="127" viewBox="0 0 116 127" fill="none" xmlns="http://www.w3.org/2000/svg">
<rect width="116" height="127" fill="url(#paint0_linear_40000012_116)" fill-opacity="0.3"/>
<path d="M97.72 108.648C96.1413 108.648 94.4133 108.328 92.536 107.688C90.7013 107.091 88.824 106.344 86.904 105.448C85.0267 104.595 83.192 103.784 81.4 103.016C79.9493 104.083 78.52 104.936 77.112 105.576C75.7467 106.216 74.424 106.536 73.144 106.536C71.8213 106.536 70.712 106.259 69.816 105.704C68.92 105.149 68.2373 104.467 67.768 103.656C67.256 102.845 67 102.056 67 101.288C67 100.349 67.384 99.5387 68.152 98.856C68.8773 98.1733 70.1787 97.832 72.056 97.832C73.336 97.832 74.7227 98.0027 76.216 98.344C77.7093 98.6427 79.2667 99.0267 80.888 99.496C82.936 97.4053 85.0053 94.8667 87.096 91.88C89.2293 88.8933 91.2773 85.8213 93.24 82.664C94.8613 79.7627 98.424 73.448 99.704 70.888C101.027 68.2853 102.029 66.0667 102.712 64.232C101.944 64.0613 101.155 63.8267 100.344 63.528C99.5333 63.2293 98.6373 62.888 97.656 62.504C95.1813 61.5653 92.8347 60.776 90.616 60.136C88.44 59.4533 86.52 59.112 84.856 59.112C83.4907 59.112 82.2533 59.3893 81.144 59.944C80.0773 60.456 79.224 61.3947 78.584 62.76C77.9867 64.1253 77.688 66.0027 77.688 68.392C77.688 68.52 77.688 68.712 77.688 68.968C77.7307 69.224 77.7733 69.5013 77.816 69.8C77.9013 70.056 77.9653 70.2907 78.008 70.504C76.6427 70.248 75.6613 69.7147 75.064 68.904C74.4667 68.0933 74.168 67.048 74.168 65.768C74.168 62.8667 75.2773 60.6907 77.496 59.24C79.7147 57.7467 82.808 57 86.776 57C89.0373 57 91.1493 57.2133 93.112 57.64C95.1173 58.024 97.016 58.4933 98.808 59.048C100.643 59.6027 102.413 60.0933 104.12 60.52C105.827 60.904 107.533 61.096 109.24 61.096C109.667 61.096 110.093 61.0747 110.52 61.032C110.947 60.9893 111.331 60.9467 111.672 60.904C110.947 61.544 110.307 62.0773 109.752 62.504C109.197 62.888 108.685 63.208 108.216 63.464C107.277 65.64 106.104 68.1147 104.696 70.888C103.288 73.6613 101.731 76.52 100.024 79.464C99.4267 79.8053 98.5605 81.8952 98.168 82.536C96.0773 85.9493 93.8373 89.2347 91.448 92.392C89.1013 95.5067 86.7333 98.1947 84.344 100.456C87.1173 101.309 89.8693 102.099 92.6 102.824C95.3733 103.549 97.8053 103.912 99.896 103.912C100.877 103.912 101.752 103.805 102.52 103.592C103.288 103.421 104.056 103.144 104.824 102.76C104.056 104.936 103.096 106.451 101.944 107.304C100.792 108.2 99.384 108.648 97.72 108.648ZM72.76 104.68C73.5707 104.68 74.4453 104.403 75.384 103.848C76.3653 103.336 77.3893 102.632 78.456 101.736C77.048 101.181 75.7253 100.712 74.488 100.328C73.2507 99.944 72.1627 99.752 71.224 99.752C70.2853 99.752 69.6453 99.9013 69.304 100.2C68.9627 100.499 68.792 100.861 68.792 101.288C68.792 101.971 69.1547 102.696 69.88 103.464C70.6053 104.275 71.5653 104.68 72.76 104.68Z" fill="url(#paint1_linear_40000012_116)"/>
<path d="M52.144 91.328C50.096 91.1573 48.7947 90.6027 48.24 89.664C47.6853 88.768 47.408 87.616 47.408 86.208C47.408 84.672 47.7067 82.7947 48.304 80.576C48.944 78.3147 49.7333 75.8827 50.672 73.28C51.6107 70.6773 52.5707 68.096 53.552 65.536C53.0827 65.5787 52.4853 65.6427 51.76 65.728C51.0347 65.7707 50.2027 65.856 49.264 65.984C48.368 66.0693 47.3653 66.1973 46.256 66.368C46.3413 65.216 46.768 64.32 47.536 63.68C48.3467 62.9973 49.392 62.5067 50.672 62.208C51.952 61.8667 53.3813 61.6747 54.96 61.632C56.112 58.432 57.3067 55.296 58.544 52.224C59.7813 49.152 61.0187 46.336 62.256 43.776C61.872 43.7333 61.488 43.712 61.104 43.712C60.72 43.6693 60.2933 43.648 59.824 43.648C57.136 43.648 55.0453 43.9253 53.552 44.48C52.1013 45.0347 51.0987 45.8667 50.544 46.976C49.9893 48.0853 49.712 49.4933 49.712 51.2C49.712 52.1813 49.776 53.0773 49.904 53.888C50.0747 54.6987 50.3307 55.5733 50.672 56.512C49.0507 56.2133 47.856 55.616 47.088 54.72C46.3627 53.824 46 52.6933 46 51.328C46 49.1093 46.7893 47.1467 48.368 45.44C49.9893 43.7333 52.144 42.4107 54.832 41.472C57.5627 40.4907 60.592 40 63.92 40C66.1813 40 68.4 40.1707 70.576 40.512C72.752 40.8107 74.8213 40.96 76.784 40.96C77.7653 40.96 78.6613 40.896 79.472 40.768C80.2827 40.64 81.1573 40.448 82.096 40.192C80.3893 42.1547 78.96 43.456 77.808 44.096C76.656 44.736 75.504 45.056 74.352 45.056C73.3707 45.056 72.0907 44.928 70.512 44.672C68.9333 44.3733 67.1627 44.16 65.2 44.032C64.6453 45.3973 64.0267 47.04 63.344 48.96C62.704 50.88 62.0213 52.928 61.296 55.104C60.6133 57.28 59.9093 59.4773 59.184 61.696C61.36 61.824 63.3653 62.016 65.2 62.272C67.0773 62.528 68.8907 62.6773 70.64 62.72C70.256 63.2747 69.8293 63.7227 69.36 64.064C68.8907 64.3627 68.2293 64.5973 67.376 64.768C66.5653 64.896 65.4133 65.0027 63.92 65.088C62.4693 65.1307 60.5493 65.1733 58.16 65.216C57.8613 66.24 57.52 67.392 57.136 68.672C56.752 69.952 56.4107 71.1253 56.112 72.192C55.856 73.216 55.6427 73.9413 55.472 74.368C54.448 77.9093 53.6373 81.0667 53.04 83.84C52.4853 86.6133 52.1867 89.1093 52.144 91.328Z" fill="url(#paint2_linear_40000012_116)"/>
<path d="M34.784 71.648C33.248 71.648 31.52 71.328 29.6 70.688C27.7227 70.048 25.7813 69.2587 23.776 68.32C21.8133 67.424 19.8507 66.5707 17.888 65.76C16.8213 66.912 15.6907 67.808 14.496 68.448C13.344 69.1307 12.0853 69.472 10.72 69.472C9.312 69.472 8.11733 69.152 7.136 68.512C6.112 67.872 5.344 67.104 4.832 66.208C4.27733 65.312 4 64.5013 4 63.776C4 62.9653 4.36266 62.2827 5.088 61.728C5.81333 61.1307 7.072 60.832 8.864 60.832C10.016 60.832 11.2533 60.96 12.576 61.216C13.9413 61.472 15.3493 61.792 16.8 62.176C17.824 60.384 18.7627 58.3147 19.616 55.968C20.4693 53.6213 21.3227 51.1253 22.176 48.48C23.0293 45.8347 23.8613 43.2107 24.672 40.608C22.6667 39.9253 21.088 38.9653 19.936 37.728C18.8267 36.448 18.272 35.104 18.272 33.696C18.272 32.928 18.4427 32.16 18.784 31.392C19.1253 30.5813 19.6373 29.8987 20.32 29.344C21.0027 28.7893 21.792 28.512 22.688 28.512C22.304 29.024 22.048 29.7067 21.92 30.56C21.792 31.3707 21.728 32.0533 21.728 32.608C21.728 34.144 22.048 35.4453 22.688 36.512C23.3707 37.5787 24.224 38.3893 25.248 38.944C26.1013 36.4267 26.976 34.0373 27.872 31.776C28.8107 29.5147 29.8347 27.5093 30.944 25.76C32.0533 23.968 33.2693 22.56 34.592 21.536C35.9573 20.512 37.472 20 39.136 20C40.032 20 40.9707 20.192 41.952 20.576C42.976 20.96 43.8507 21.6427 44.576 22.624C45.3013 23.5627 45.664 24.9067 45.664 26.656C45.664 28.1067 45.344 29.6853 44.704 31.392C44.1067 33.056 43.168 34.656 41.888 36.192C40.6507 37.6853 39.0507 38.9227 37.088 39.904C35.1253 40.8427 32.7787 41.3547 30.048 41.44C30.0053 41.44 29.8987 41.44 29.728 41.44C29.6 41.44 29.3653 41.44 29.024 41.44C28.2133 44 27.9387 46.8547 27 49.5C26.0613 52.1027 24.8427 54.6107 23.776 57C22.7093 59.3467 21.1947 61.1947 20 63.072C21.8347 63.6267 23.7547 64.2027 25.76 64.8C27.808 65.3973 29.792 65.888 31.712 66.272C33.632 66.6987 35.3813 66.912 36.96 66.912C37.8987 66.912 38.752 66.8053 39.52 66.592C40.288 66.4213 41.056 66.144 41.824 65.76C41.0987 67.8933 40.1387 69.408 38.944 70.304C37.792 71.2 36.4053 71.648 34.784 71.648ZM10.336 67.424C11.3173 67.424 12.192 67.168 12.96 66.656C13.7707 66.1867 14.5173 65.504 15.2 64.608C13.8773 64.096 12.5973 63.6693 11.36 63.328C10.1227 62.9867 9.03466 62.816 8.096 62.816C7.28533 62.816 6.73067 62.944 6.432 63.2C6.09067 63.4133 5.92 63.712 5.92 64.096C5.92 64.8213 6.34666 65.5467 7.2 66.272C8.01066 67.04 9.056 67.424 10.336 67.424ZM29.536 39.904C31.456 39.8613 33.1627 39.3067 34.656 38.24C36.192 37.1307 37.4933 35.7867 38.56 34.208C39.6267 32.6293 40.4373 31.008 40.992 29.344C41.5467 27.68 41.824 26.2293 41.824 24.992C41.824 23.7973 41.5893 22.9867 41.12 22.56C40.6933 22.1333 40.1813 21.92 39.584 21.92C38.304 21.92 37.088 22.752 35.936 24.416C34.8267 26.08 33.7387 28.2773 32.672 31.008C31.648 33.696 30.6027 36.6613 29.536 39.904Z" fill="url(#paint3_linear_40000012_116)"/>
<defs>
<linearGradient id="paint0_linear_40000012_116" x1="5.50001" y1="127.5" x2="115" y2="0.499999" gradientUnits="userSpaceOnUse">
<stop stop-color="white"/>
<stop offset="1" stop-color="#D43636"/>
</linearGradient>
<linearGradient id="paint1_linear_40000012_116" x1="89.336" y1="57" x2="89.336" y2="108.648" gradientUnits="userSpaceOnUse">
<stop offset="0.03" stop-color="#0011FF"/>
<stop offset="1" stop-color="#000A99"/>
</linearGradient>
<linearGradient id="paint2_linear_40000012_116" x1="64.048" y1="40" x2="64.048" y2="91.328" gradientUnits="userSpaceOnUse">
<stop offset="0.03" stop-color="#0011FF"/>
<stop offset="1" stop-color="#000A99"/>
</linearGradient>
<linearGradient id="paint3_linear_40000012_116" x1="24.832" y1="20" x2="24.832" y2="71.648" gradientUnits="userSpaceOnUse">
<stop offset="0.03" stop-color="#0011FF"/>
<stop offset="1" stop-color="#000A99"/>
</linearGradient>
</defs>
</svg>
