<svg width="108" height="89" viewBox="0 0 108 89" fill="none" xmlns="http://www.w3.org/2000/svg">
<path d="M93.72 88.648C92.1413 88.648 90.4133 88.328 88.536 87.688C86.7013 87.0907 84.824 86.344 82.904 85.448C81.0267 84.5947 79.192 83.784 77.4 83.016C75.9493 84.0827 74.52 84.936 73.112 85.576C71.7467 86.216 70.424 86.536 69.144 86.536C67.8213 86.536 66.712 86.2587 65.816 85.704C64.92 85.1493 64.2373 84.4667 63.768 83.656C63.256 82.8453 63 82.056 63 81.288C63 80.3493 63.384 79.5387 64.152 78.856C64.8773 78.1733 66.1787 77.832 68.056 77.832C69.336 77.832 70.7227 78.0027 72.216 78.344C73.7093 78.6427 75.2667 79.0267 76.888 79.496C78.936 77.4053 81.0053 74.8667 83.096 71.88C85.2293 68.8933 87.2773 65.8213 89.24 62.664C90.8613 59.7627 94.424 53.448 95.704 50.888C97.0267 48.2853 98.0293 46.0667 98.712 44.232C97.944 44.0613 97.1547 43.8267 96.344 43.528C95.5333 43.2293 94.6373 42.888 93.656 42.504C91.1813 41.5653 88.8347 40.776 86.616 40.136C84.44 39.4533 82.52 39.112 80.856 39.112C79.4907 39.112 78.2533 39.3893 77.144 39.944C76.0773 40.456 75.224 41.3947 74.584 42.76C73.9867 44.1253 73.688 46.0027 73.688 48.392C73.688 48.52 73.688 48.712 73.688 48.968C73.7307 49.224 73.7733 49.5013 73.816 49.8C73.9013 50.056 73.9653 50.2907 74.008 50.504C72.6427 50.248 71.6613 49.7147 71.064 48.904C70.4667 48.0933 70.168 47.048 70.168 45.768C70.168 42.8667 71.2773 40.6907 73.496 39.24C75.7147 37.7467 78.808 37 82.776 37C85.0373 37 87.1493 37.2133 89.112 37.64C91.1173 38.024 93.016 38.4933 94.808 39.048C96.6427 39.6027 98.4133 40.0933 100.12 40.52C101.827 40.904 103.533 41.096 105.24 41.096C105.667 41.096 106.093 41.0747 106.52 41.032C106.947 40.9893 107.331 40.9467 107.672 40.904C106.947 41.544 106.307 42.0773 105.752 42.504C105.197 42.888 104.685 43.208 104.216 43.464C103.277 45.64 102.104 48.1147 100.696 50.888C99.288 53.6613 97.7307 56.52 96.024 59.464C95.4267 59.8053 94.5605 61.8952 94.168 62.536C92.0773 65.9493 89.8373 69.2347 87.448 72.392C85.1013 75.5067 82.7333 78.1947 80.344 80.456C83.1173 81.3093 85.8693 82.0987 88.6 82.824C91.3733 83.5493 93.8053 83.912 95.896 83.912C96.8773 83.912 97.752 83.8053 98.52 83.592C99.288 83.4213 100.056 83.144 100.824 82.76C100.056 84.936 99.096 86.4507 97.944 87.304C96.792 88.2 95.384 88.648 93.72 88.648ZM68.76 84.68C69.5707 84.68 70.4453 84.4027 71.384 83.848C72.3653 83.336 73.3893 82.632 74.456 81.736C73.048 81.1813 71.7253 80.712 70.488 80.328C69.2507 79.944 68.1627 79.752 67.224 79.752C66.2853 79.752 65.6453 79.9013 65.304 80.2C64.9627 80.4987 64.792 80.8613 64.792 81.288C64.792 81.9707 65.1547 82.696 65.88 83.464C66.6053 84.2747 67.5653 84.68 68.76 84.68Z" fill="url(#paint0_linear_40000012_111)"/>
<path d="M48.144 71.328C46.096 71.1573 44.7947 70.6027 44.24 69.664C43.6853 68.768 43.408 67.616 43.408 66.208C43.408 64.672 43.7067 62.7947 44.304 60.576C44.944 58.3147 45.7333 55.8827 46.672 53.28C47.6107 50.6773 48.5707 48.096 49.552 45.536C49.0827 45.5787 48.4853 45.6427 47.76 45.728C47.0347 45.7707 46.2027 45.856 45.264 45.984C44.368 46.0693 43.3653 46.1973 42.256 46.368C42.3413 45.216 42.768 44.32 43.536 43.68C44.3467 42.9973 45.392 42.5067 46.672 42.208C47.952 41.8667 49.3813 41.6747 50.96 41.632C52.112 38.432 53.3067 35.296 54.544 32.224C55.7813 29.152 57.0187 26.336 58.256 23.776C57.872 23.7333 57.488 23.712 57.104 23.712C56.72 23.6693 56.2933 23.648 55.824 23.648C53.136 23.648 51.0453 23.9253 49.552 24.48C48.1013 25.0347 47.0987 25.8667 46.544 26.976C45.9893 28.0853 45.712 29.4933 45.712 31.2C45.712 32.1813 45.776 33.0773 45.904 33.888C46.0747 34.6987 46.3307 35.5733 46.672 36.512C45.0507 36.2133 43.856 35.616 43.088 34.72C42.3627 33.824 42 32.6933 42 31.328C42 29.1093 42.7893 27.1467 44.368 25.44C45.9893 23.7333 48.144 22.4107 50.832 21.472C53.5627 20.4907 56.592 20 59.92 20C62.1813 20 64.4 20.1707 66.576 20.512C68.752 20.8107 70.8213 20.96 72.784 20.96C73.7653 20.96 74.6613 20.896 75.472 20.768C76.2827 20.64 77.1573 20.448 78.096 20.192C76.3893 22.1547 74.96 23.456 73.808 24.096C72.656 24.736 71.504 25.056 70.352 25.056C69.3707 25.056 68.0907 24.928 66.512 24.672C64.9333 24.3733 63.1627 24.16 61.2 24.032C60.6453 25.3973 60.0267 27.04 59.344 28.96C58.704 30.88 58.0213 32.928 57.296 35.104C56.6133 37.28 55.9093 39.4773 55.184 41.696C57.36 41.824 59.3653 42.016 61.2 42.272C63.0773 42.528 64.8907 42.6773 66.64 42.72C66.256 43.2747 65.8293 43.7227 65.36 44.064C64.8907 44.3627 64.2293 44.5973 63.376 44.768C62.5653 44.896 61.4133 45.0027 59.92 45.088C58.4693 45.1307 56.5493 45.1733 54.16 45.216C53.8613 46.24 53.52 47.392 53.136 48.672C52.752 49.952 52.4107 51.1253 52.112 52.192C51.856 53.216 51.6427 53.9413 51.472 54.368C50.448 57.9093 49.6373 61.0667 49.04 63.84C48.4853 66.6133 48.1867 69.1093 48.144 71.328Z" fill="url(#paint1_linear_40000012_111)"/>
<path d="M30.784 51.648C29.248 51.648 27.52 51.328 25.6 50.688C23.7227 50.048 21.7813 49.2587 19.776 48.32C17.8133 47.424 15.8507 46.5707 13.888 45.76C12.8213 46.912 11.6907 47.808 10.496 48.448C9.344 49.1307 8.08533 49.472 6.72 49.472C5.312 49.472 4.11733 49.152 3.136 48.512C2.112 47.872 1.344 47.104 0.831997 46.208C0.27733 45.312 0 44.5013 0 43.776C0 42.9653 0.362664 42.2827 1.088 41.728C1.81333 41.1307 3.072 40.832 4.864 40.832C6.016 40.832 7.25333 40.96 8.576 41.216C9.94133 41.472 11.3493 41.792 12.8 42.176C13.824 40.384 14.7627 38.3147 15.616 35.968C16.4693 33.6213 17.3227 31.1253 18.176 28.48C19.0293 25.8347 19.8613 23.2107 20.672 20.608C18.6667 19.9253 17.088 18.9653 15.936 17.728C14.8267 16.448 14.272 15.104 14.272 13.696C14.272 12.928 14.4427 12.16 14.784 11.392C15.1253 10.5813 15.6373 9.89867 16.32 9.344C17.0027 8.78933 17.792 8.512 18.688 8.512C18.304 9.024 18.048 9.70667 17.92 10.56C17.792 11.3707 17.728 12.0533 17.728 12.608C17.728 14.144 18.048 15.4453 18.688 16.512C19.3707 17.5787 20.224 18.3893 21.248 18.944C22.1013 16.4267 22.976 14.0373 23.872 11.776C24.8107 9.51467 25.8347 7.50933 26.944 5.76C28.0533 3.968 29.2693 2.56 30.592 1.536C31.9573 0.512 33.472 0 35.136 0C36.032 0 36.9707 0.192 37.952 0.576C38.976 0.96 39.8507 1.64267 40.576 2.624C41.3013 3.56267 41.664 4.90667 41.664 6.656C41.664 8.10667 41.344 9.68533 40.704 11.392C40.1067 13.056 39.168 14.656 37.888 16.192C36.6507 17.6853 35.0507 18.9227 33.088 19.904C31.1253 20.8427 28.7787 21.3547 26.048 21.44C26.0053 21.44 25.8987 21.44 25.728 21.44C25.6 21.44 25.3653 21.44 25.024 21.44C24.2133 24 23.9387 26.8547 23 29.5C22.0613 32.1027 20.8427 34.6107 19.776 37C18.7093 39.3467 17.1947 41.1947 16 43.072C17.8347 43.6267 19.7547 44.2027 21.76 44.8C23.808 45.3973 25.792 45.888 27.712 46.272C29.632 46.6987 31.3813 46.912 32.96 46.912C33.8987 46.912 34.752 46.8053 35.52 46.592C36.288 46.4213 37.056 46.144 37.824 45.76C37.0987 47.8933 36.1387 49.408 34.944 50.304C33.792 51.2 32.4053 51.648 30.784 51.648ZM6.336 47.424C7.31733 47.424 8.192 47.168 8.96 46.656C9.77067 46.1867 10.5173 45.504 11.2 44.608C9.87733 44.096 8.59733 43.6693 7.36 43.328C6.12267 42.9867 5.03466 42.816 4.096 42.816C3.28533 42.816 2.73067 42.944 2.432 43.2C2.09067 43.4133 1.92 43.712 1.92 44.096C1.92 44.8213 2.34666 45.5467 3.2 46.272C4.01066 47.04 5.056 47.424 6.336 47.424ZM25.536 19.904C27.456 19.8613 29.1627 19.3067 30.656 18.24C32.192 17.1307 33.4933 15.7867 34.56 14.208C35.6267 12.6293 36.4373 11.008 36.992 9.344C37.5467 7.68 37.824 6.22933 37.824 4.992C37.824 3.79733 37.5893 2.98667 37.12 2.56C36.6933 2.13333 36.1813 1.92 35.584 1.92C34.304 1.92 33.088 2.752 31.936 4.416C30.8267 6.08 29.7387 8.27733 28.672 11.008C27.648 13.696 26.6027 16.6613 25.536 19.904Z" fill="url(#paint2_linear_40000012_111)"/>
<defs>
<linearGradient id="paint0_linear_40000012_111" x1="85.336" y1="37" x2="85.336" y2="88.648" gradientUnits="userSpaceOnUse">
<stop offset="0.03" stop-color="#0011FF"/>
<stop offset="1" stop-color="#000A99"/>
</linearGradient>
<linearGradient id="paint1_linear_40000012_111" x1="60.048" y1="20" x2="60.048" y2="71.328" gradientUnits="userSpaceOnUse">
<stop offset="0.03" stop-color="#0011FF"/>
<stop offset="1" stop-color="#000A99"/>
</linearGradient>
<linearGradient id="paint2_linear_40000012_111" x1="20.832" y1="0" x2="20.832" y2="51.648" gradientUnits="userSpaceOnUse">
<stop offset="0.03" stop-color="#0011FF"/>
<stop offset="1" stop-color="#000A99"/>
</linearGradient>
</defs>
</svg>
